<?xml version="1.0" encoding="UTF-8" standalone="no"?>
<!DOCTYPE svg PUBLIC "-//W3C//DTD SVG 1.1//EN" "http://www.w3.org/Graphics/SVG/1.1/DTD/svg11.dtd">
<svg width="100%" height="100%" viewBox="0 0 128 128" version="1.1" xmlns="http://www.w3.org/2000/svg" xmlns:xlink="http://www.w3.org/1999/xlink" xml:space="preserve" xmlns:serif="http://www.serif.com/" style="fill-rule:evenodd;clip-rule:evenodd;stroke-linejoin:round;stroke-miterlimit:2;">
    <g transform="matrix(0.180524,0,0,0.180524,-222.565,-353.936)">
        <path d="M1494.31,2063.21C1494.31,2063.44 1494.31,2063.68 1494.31,2063.92C1494.37,2072.97 1494.87,2074.29 1493.13,2078.82C1491.38,2083.36 1490.94,2079.88 1491.38,2086.97C1491.83,2094.06 1493.69,2094.2 1491.83,2098.73C1489.96,2103.25 1489.58,2105.79 1489.42,2113.31C1489.26,2120.83 1490,2120.33 1490,2129.49C1490,2138.65 1489.68,2151.65 1489.2,2159.8C1488.72,2167.94 1487.42,2171.39 1487.42,2180.26C1487.42,2189.13 1488.81,2185.98 1490.54,2192.24C1492.27,2198.49 1491.58,2200.12 1491.58,2204.76C1491.58,2209.41 1491.51,2213.07 1488.32,2219.18C1485.13,2225.3 1483.92,2229.73 1479.15,2226.67C1474.38,2223.6 1471.8,2226.95 1468.89,2227.62C1465.98,2228.29 1462.25,2226.79 1462,2222.13C1461.75,2217.46 1460.43,2214.24 1460.43,2207.74C1460.43,2201.24 1459.63,2199.74 1460.43,2193.5C1461.23,2187.25 1464.3,2185.12 1464.3,2181.92C1464.3,2178.72 1461.62,2174.88 1461.09,2170.42C1460.56,2165.97 1460.52,2159.33 1458.55,2156.53C1456.58,2153.73 1462.81,2152.59 1455,2152.82C1447.19,2153.05 1446.63,2160.07 1447.04,2183.24C1447.44,2206.42 1447.03,2216.28 1447.44,2229.78C1447.86,2243.28 1446.92,2255.29 1451.84,2261.38C1456.77,2267.48 1461.5,2269.8 1467.78,2269.8C1474.06,2269.8 1479.18,2273.93 1483.85,2275.38C1488.52,2276.83 1493.48,2275.92 1491.82,2283.39C1490.16,2290.87 1490.35,2289.46 1491.28,2295.66C1492.21,2301.87 1496.09,2303.53 1494.52,2307.18C1492.94,2310.82 1488.52,2316.26 1479.38,2317.34C1470.24,2318.43 1463.27,2320.89 1459.75,2323.42C1456.22,2325.96 1449.37,2323.91 1448.6,2327.23C1447.83,2330.55 1450.96,2337.82 1450.75,2343.22C1450.54,2348.63 1448.62,2357.49 1448.88,2364.73C1449.15,2371.97 1451.57,2373.38 1451.57,2377.41C1451.57,2381.44 1450.74,2382.88 1449.4,2387.65C1448.07,2392.41 1448.23,2400.93 1448.64,2408.82C1449.05,2416.72 1447.97,2416.58 1450.15,2422.21C1452.34,2427.84 1453.53,2428.49 1453.78,2433.99C1454.02,2439.5 1461.44,2441.03 1463.55,2435.89C1465.65,2430.74 1465.58,2422.18 1465.58,2413.21C1465.58,2404.24 1465.25,2372.95 1465.92,2364.65C1466.6,2356.35 1466.24,2354.1 1467.64,2350.23C1469.04,2346.36 1469.98,2344.64 1473.64,2343.6C1477.3,2342.56 1477.03,2341.5 1481.26,2342.88C1485.5,2344.25 1488.84,2342.36 1489.47,2347.92C1490.09,2353.48 1491.55,2358.1 1491.55,2364.76L1491.55,2385.81C1491.55,2393.1 1491.49,2401.37 1491.55,2406.5C1491.61,2411.63 1492.81,2418.9 1491.8,2421.65C1490.79,2424.41 1490.74,2425.22 1489.38,2429.2C1488.03,2433.18 1487.22,2433.49 1488.21,2436.58C1489.2,2439.68 1490.53,2439.82 1491.2,2444.1C1491.87,2448.38 1492.83,2448.79 1490.32,2451.83C1487.81,2454.88 1490.57,2461.82 1490.87,2466.03C1491.17,2470.25 1495.3,2476.57 1495.3,2481.47C1495.3,2486.36 1493.3,2483.75 1494.39,2492.68C1495.49,2501.61 1492.29,2507.3 1494.22,2509.89C1496.15,2512.47 1496.64,2523.94 1496.64,2528.75C1496.64,2533.56 1496.94,2532.54 1497.82,2537.3C1498.7,2542.07 1499.68,2540.87 1499.68,2551.33C1499.68,2561.78 1498.74,2560.03 1499.88,2564.2C1501.03,2568.37 1507.65,2577.99 1511.34,2565.31C1515.03,2552.62 1514.81,2544.43 1515.03,2536.2C1515.25,2527.97 1516.12,2512.23 1516.71,2508.58C1517.31,2504.94 1520.64,2495.56 1520.64,2491.58C1520.64,2487.61 1519.87,2485.55 1521.81,2479.77C1523.74,2474 1520.37,2464.96 1520.3,2453.64C1520.22,2442.32 1522.6,2442.98 1522.7,2437.78C1522.81,2432.58 1520.04,2426.14 1520.04,2419.24C1520.04,2412.33 1524.41,2414.33 1522.96,2408.86C1521.51,2403.4 1521.49,2391.06 1522.29,2382.43C1523.1,2373.8 1520.55,2370 1519.06,2366.28C1517.57,2362.55 1515.21,2359.86 1519.62,2356.48C1524.03,2353.09 1523.4,2351.12 1525.25,2347.35C1527.09,2343.57 1532.91,2347.49 1533.96,2353.26C1535.01,2359.03 1541.16,2359.19 1541.23,2366.95C1541.29,2374.71 1541.11,2379.85 1541.11,2387.07C1541.11,2394.3 1540.58,2402.22 1540.12,2406.16C1539.66,2410.11 1539.01,2413.21 1539.72,2416.68C1540.43,2420.15 1540.47,2422.39 1541.62,2428.39C1542.76,2434.38 1543.54,2434.32 1542.42,2437.26C1541.31,2440.2 1539.44,2445.1 1539.87,2448.95C1540.3,2452.8 1541.98,2457.31 1541.5,2461.33C1541.02,2465.36 1540.8,2471.53 1540.89,2476.87C1540.98,2482.21 1543.4,2490.57 1543.4,2498.35C1543.4,2506.12 1544.86,2520.83 1543.28,2525.03C1541.69,2529.23 1541.43,2544.7 1541.72,2548.39C1542.01,2552.07 1542.58,2556.87 1542.41,2559.76C1542.24,2562.64 1541.73,2589.08 1542.24,2591.65C1542.76,2594.21 1544.36,2595.11 1543.01,2600.06C1542.09,2603.41 1542.16,2610.08 1544.36,2614.06C1542.08,2613.17 1540.06,2612.27 1538.34,2611.36C1451.52,2565.46 1418.92,2496.31 1412.08,2412.48C1405.24,2328.66 1400.01,2227.24 1437.28,2144.59C1455.4,2104.39 1473.32,2080.14 1494.31,2063.21ZM1585.67,2624.09C1577.12,2622.76 1562.17,2619.44 1562.18,2619.41C1562.4,2618.49 1558.97,2603.71 1559.17,2602.77C1560.75,2595.37 1560.85,2594.04 1564.07,2589.57C1567.3,2585.09 1569.88,2563.56 1569.53,2559.43C1569.18,2555.29 1566.21,2554.97 1566.21,2550.87L1566.21,2528.9C1566.21,2526.01 1564.52,2511.69 1564.52,2505.85C1564.52,2500.02 1563.3,2492.64 1563.3,2485.36C1563.3,2478.08 1560.28,2477.31 1563.45,2472.54C1566.62,2467.76 1567.02,2457.91 1565.92,2454.18C1564.82,2450.45 1564.22,2445.66 1564.22,2442.64C1564.22,2439.61 1562.15,2436.45 1564.54,2431.38C1566.93,2426.31 1568.33,2415.63 1565.15,2408.18C1561.98,2400.73 1559.05,2378.65 1563.34,2372.62C1567.62,2366.58 1566.08,2358.33 1563.33,2350.36C1560.59,2342.39 1564.65,2345.14 1564.65,2339.42C1564.65,2333.7 1564.44,2331.82 1562.65,2326.86C1560.85,2321.9 1561.85,2318.31 1557.37,2316.95C1552.89,2315.6 1551.19,2309.16 1546.24,2313.84C1541.28,2318.51 1540.95,2317.68 1537.1,2317.41C1533.24,2317.15 1525.1,2317.02 1525.1,2317.02C1525.1,2317.02 1519.51,2315.63 1522.07,2311.38C1524.62,2307.14 1524.36,2298.87 1521.11,2296.48C1517.85,2294.1 1514.75,2288.71 1519.88,2286.28C1525.01,2283.85 1523.24,2278.62 1528.39,2275.84C1533.54,2273.05 1538.38,2274.01 1543.49,2273.05C1548.61,2272.09 1559.9,2262.94 1560.11,2254.54C1560.32,2246.15 1561.98,2229.19 1561.98,2222.11C1561.98,2215.02 1561.35,2209.31 1561.35,2201.03C1561.35,2192.75 1558.25,2183.35 1560.32,2177.74C1562.39,2172.13 1561.24,2157.43 1560.44,2150.13C1559.63,2142.83 1562.19,2122.72 1562.19,2114.36C1562.19,2106.01 1561.98,2104.43 1563.01,2100.81C1564.05,2097.19 1565.49,2097.14 1565.49,2094.23C1565.49,2091.32 1563.46,2089.52 1562.95,2081.24C1562.44,2072.97 1559.19,2070.9 1560.3,2066.95C1561.41,2063 1560.46,2061.45 1560.46,2057.42C1560.46,2053.39 1556.38,2049.58 1556.38,2049.58C1556.38,2049.58 1542.29,2042.46 1542.28,2051.64C1542.26,2060.82 1541.82,2067.52 1541.27,2072.85C1540.71,2078.18 1537.13,2081.37 1537.34,2088.61C1537.56,2095.85 1539.5,2104.34 1538.11,2109.52C1536.73,2114.7 1535.07,2117.05 1535,2122.26C1534.92,2127.47 1533.32,2133.98 1534.51,2144.22C1535.7,2154.47 1536.77,2151.01 1536.77,2160.64C1536.77,2170.27 1539.22,2167.54 1539.16,2176.98C1539.09,2186.43 1537.28,2200.09 1536.8,2209.86C1536.32,2219.63 1536.42,2217.26 1536.42,2227.17C1536.42,2237.09 1536.59,2236.99 1532.63,2237.35C1528.67,2237.71 1526.81,2237.94 1524.69,2233.01C1522.56,2228.09 1517.14,2226.29 1516.26,2218.25C1515.39,2210.21 1515.65,2202.61 1515.65,2197.68C1515.65,2192.76 1518.85,2175.8 1518.85,2167.35L1518.85,2150.47C1518.85,2147.23 1521.5,2139.91 1519.57,2133.28C1517.64,2126.66 1517.89,2114.03 1518.9,2106.5C1519.92,2098.97 1518.59,2094.6 1518.59,2094.6C1518.59,2094.6 1516.46,2092.21 1518.59,2087.73C1520.72,2083.25 1517.76,2078.83 1517.36,2071.96C1516.96,2065.09 1516.15,2067.83 1516.15,2064.12C1516.15,2060.4 1515.24,2058.63 1512.84,2053.84C1512.35,2052.86 1511.79,2052.07 1511.16,2051.45C1529.37,2040.47 1550.08,2032.75 1574.97,2023.87C1629.34,2004.48 1715.85,1984.7 1744.02,2026.15C1748.04,2032.07 1761.94,2053.17 1763.28,2061.05C1774.01,2124.12 1758.15,2146.01 1761.79,2236.13C1765.42,2326.25 1778.08,2511.97 1748.36,2589.1C1744.89,2598.09 1738.14,2605.26 1729.11,2610.88C1729.94,2603.1 1733.38,2590.93 1732.84,2581.68C1732.25,2571.61 1734.38,2562.88 1734.59,2556.53C1734.8,2550.19 1736.06,2546.84 1734.59,2544.7C1733.13,2542.55 1733.73,2532.28 1734.59,2523.38C1735.45,2514.47 1735.44,2506.34 1734.59,2502.53C1733.74,2498.72 1733.25,2486.38 1737.37,2482.01C1741.5,2477.64 1744.15,2472.33 1741.07,2464.27C1737.99,2456.22 1733.78,2450.19 1732.75,2444.74C1731.73,2439.3 1732.24,2435.55 1732.71,2433.3C1733.19,2431.06 1733.86,2426.33 1732.83,2419.86C1731.8,2413.39 1731.97,2411.23 1732.96,2407.42C1733.96,2403.6 1730.54,2394.53 1732.3,2388.2C1734.07,2381.88 1733.94,2380.79 1734.59,2374.64C1735.24,2368.49 1734.76,2366.87 1737.07,2359.99C1739.39,2353.11 1736.87,2344.99 1737.03,2338.05C1737.19,2331.12 1737.34,2327.44 1737.96,2321.96C1738.58,2316.47 1738.75,2311.93 1737.19,2305.27C1735.63,2298.61 1733.87,2297.81 1732.51,2294.48C1731.15,2291.15 1729.76,2291.93 1721.3,2295.48C1712.84,2299.04 1718.82,2303.67 1714.67,2307.47C1710.52,2311.28 1709.89,2308.37 1700.45,2310.12C1695.26,2311.08 1698.06,2310.13 1694.23,2313.6C1690.4,2317.07 1689.26,2314.64 1685.42,2314.82C1681.59,2315.01 1676.18,2316.02 1674.05,2314.22C1671.92,2312.42 1672.32,2310.68 1667.67,2310.54C1663.03,2310.39 1658.59,2309.44 1651.97,2310.54C1645.35,2311.63 1643.47,2308.64 1638.01,2312.57C1632.55,2316.51 1629.44,2317.14 1626.67,2317.03C1623.9,2316.92 1624.34,2322.65 1618.57,2319.65C1612.8,2316.66 1607.81,2317.97 1607.17,2312.71C1606.52,2307.45 1605.7,2306.1 1600.53,2303.36C1595.7,2300.8 1591.76,2299.64 1588.82,2300.91C1585.88,2302.18 1578.01,2307.01 1581.1,2312.68C1584.18,2318.35 1582.02,2326.7 1581.75,2334.72C1581.48,2342.75 1581.95,2339.23 1581.69,2347.05C1581.42,2354.88 1580.04,2361.85 1579.82,2366.02C1579.6,2370.2 1582.91,2370.19 1582.46,2375.43C1582.01,2380.66 1582.45,2389.91 1581.07,2395.1C1579.68,2400.3 1579.34,2406.43 1579.83,2412.18C1580.32,2417.92 1580,2422.22 1579.09,2426.22C1578.19,2430.23 1581.23,2432.53 1580.32,2437.31C1579.4,2442.09 1580.35,2441.1 1580.6,2443.79C1580.85,2446.48 1580.59,2445.2 1580.93,2453.26C1581.28,2461.33 1577.78,2456.93 1578.66,2465.32C1579.54,2473.7 1581.93,2471.6 1581.11,2477.86C1580.28,2484.11 1580.49,2482.19 1580.55,2486.67C1580.61,2491.15 1579.29,2504.35 1579.8,2511.22C1580.32,2518.1 1582.54,2521.66 1581.01,2529.47C1579.48,2537.29 1580.77,2545.73 1579.76,2555.56C1578.75,2565.39 1575.11,2578.31 1577.16,2584.15C1579.2,2589.98 1581.13,2593.9 1581.02,2600.72C1580.9,2607.54 1580.96,2610.59 1581.87,2614.01C1582.61,2616.81 1584.33,2621.34 1585.67,2624.09ZM1595.12,2625.42C1595.52,2624.8 1595.91,2624.07 1596.3,2623.21C1600.07,2614.79 1600.64,2608.95 1600.52,2601.56C1600.39,2594.17 1599.63,2591.99 1600.42,2588.66C1601.21,2585.34 1602.14,2582.58 1602.77,2578.61C1603.39,2574.64 1599.85,2565.26 1603.35,2557.12C1606.85,2548.98 1606.74,2550.09 1605.86,2543.55C1604.99,2537.01 1602.23,2526.32 1604.95,2519.41C1607.67,2512.5 1604.4,2504.56 1605.17,2497.06C1605.94,2489.56 1603.92,2483.89 1603.68,2475.32C1603.44,2466.75 1601.57,2469.21 1603.87,2464.35C1606.17,2459.49 1605.38,2447.39 1604.48,2439.21C1603.58,2431.03 1603.48,2427.96 1602.67,2421.89C1601.85,2415.83 1601.1,2412.49 1602.11,2408.28C1603.13,2404.07 1602.72,2393.88 1602.8,2387.16C1602.88,2380.43 1602.49,2381.06 1603.3,2375.78C1604.11,2370.51 1602.47,2368.75 1603.72,2363.66C1604.97,2358.57 1607.9,2352.14 1613.04,2349.92C1618.17,2347.7 1620.78,2348.71 1627.38,2350.34C1633.99,2351.97 1636.42,2353.11 1639.22,2351.4C1642.03,2349.7 1648.52,2347.27 1651.97,2349.24C1655.43,2351.2 1662.53,2354.96 1673.31,2352.8C1684.1,2350.63 1682.18,2350.64 1687.2,2353.79C1692.21,2356.94 1692.13,2357.19 1695.13,2359.34C1698.14,2361.5 1700.29,2364.33 1700.52,2367.13C1700.74,2369.93 1701.4,2374.06 1701.4,2374.06C1701.4,2374.06 1703.29,2375.77 1702.15,2379.23C1701.01,2382.68 1701.45,2387.27 1702.13,2390.71C1702.82,2394.16 1703.29,2397.03 1703.29,2399.53C1703.29,2402.02 1702.43,2402.59 1703.05,2405.5C1703.68,2408.41 1704.01,2409.08 1704.7,2411.5C1705.38,2413.92 1705.24,2412.22 1705.05,2419.17C1704.87,2426.12 1704.22,2431.29 1704.49,2434.4C1704.76,2437.52 1706.92,2434.92 1704.46,2439.26C1702,2443.61 1703.09,2446.49 1702.65,2448.47C1702.21,2450.45 1699.72,2450.13 1699.72,2450.13C1699.72,2450.13 1697.08,2446.6 1697.7,2441.43C1698.33,2436.26 1695.59,2423.83 1696.01,2414.98C1696.42,2406.12 1694.83,2397.67 1693.26,2393.78C1691.69,2389.88 1690.42,2385.28 1686.69,2385.39C1682.97,2385.5 1678.54,2386.58 1676.94,2392.49C1675.33,2398.41 1675.48,2406.33 1675.48,2413.27C1675.48,2420.2 1675.67,2426.05 1675.15,2433.07C1674.64,2440.09 1675.54,2439.87 1671.77,2441.95C1668,2444.04 1669.4,2444.24 1663.93,2446.95C1658.45,2449.65 1660.23,2450.37 1657.54,2450.41C1654.85,2450.45 1650.78,2453.86 1651.97,2448.41C1653.16,2442.97 1653.64,2438.74 1651.97,2432.84C1650.31,2426.94 1649.69,2423.57 1650.06,2418.11C1650.43,2412.64 1648.84,2409.75 1648.81,2401.59C1648.79,2393.43 1644.86,2384.33 1641.4,2380.89C1637.94,2377.44 1635.5,2376.02 1632.74,2375.81C1629.99,2375.59 1629.21,2375.12 1626.85,2379.05C1624.49,2382.97 1622.91,2384.11 1622.72,2387.82C1622.54,2391.54 1621.69,2396.99 1621.52,2400.07C1621.36,2403.14 1620.55,2411.2 1618.33,2416.18C1616.11,2421.16 1616.64,2417.97 1617.98,2425.38C1619.33,2432.78 1619.01,2433.16 1618.99,2438.43C1618.97,2443.71 1621.68,2441.6 1617.24,2447.57C1612.81,2453.55 1612.61,2454.28 1613.18,2457.51C1613.75,2460.74 1614.36,2461.5 1614.62,2464.8C1614.89,2468.1 1610.09,2470.82 1613.57,2476.56C1617.05,2482.3 1615.97,2485.99 1615.98,2489.92C1615.98,2493.85 1616.38,2505.33 1618.18,2509.96C1619.97,2514.6 1620.67,2516.71 1620.89,2521.75C1621.1,2526.79 1619.91,2526.7 1621.28,2527.69C1622.65,2528.67 1624.01,2528.67 1621.71,2532.75C1619.42,2536.83 1623.56,2536.65 1622.12,2539.69C1620.68,2542.73 1619.77,2541.35 1620.28,2544.55C1620.79,2547.75 1620.52,2550.5 1620.89,2552.77C1621.27,2555.05 1622.11,2560.02 1622.29,2562.2C1622.47,2564.39 1622.81,2563.61 1622.79,2567.56C1622.77,2571.52 1622.16,2576.53 1622.99,2582.8C1623.82,2589.08 1623.31,2596.41 1625.6,2597.53C1627.9,2598.64 1628.94,2596.61 1632.28,2598.03C1635.61,2599.45 1636.71,2600.63 1644.1,2601.17C1651.48,2601.7 1653.01,2599.52 1656.44,2600.97C1659.88,2602.42 1661.59,2602.81 1661.59,2602.81C1661.59,2602.81 1666.87,2599.02 1677.28,2600.21C1687.7,2601.39 1682.62,2596.58 1686.99,2592.96C1691.36,2589.35 1688.67,2586.75 1689.34,2580.48C1690.02,2574.2 1691.6,2571.41 1692.76,2569.32C1693.92,2567.23 1698.16,2563.18 1696.31,2558.79C1694.45,2554.4 1696.07,2548.61 1698.5,2548.28C1700.93,2547.94 1704.46,2550.82 1704,2557.46C1703.53,2564.09 1703.81,2575.42 1704.9,2580.49C1705.99,2585.57 1705.84,2593.77 1705.88,2597.75C1705.92,2601.74 1707.68,2603.15 1707.19,2610.6C1706.93,2614.69 1706.97,2617.91 1707.43,2620.4C1675.33,2630.29 1631.17,2630.04 1595.12,2625.42ZM1708.01,2186.65C1701.62,2187.72 1705.92,2189.26 1699.91,2190.72C1693.89,2192.18 1694.82,2191.98 1689.16,2191.98C1683.49,2191.98 1680.5,2193.61 1678.38,2193.61C1676.25,2193.61 1670.08,2193.19 1663.55,2191.28C1657.02,2189.38 1655.73,2192.55 1647.55,2189.86C1639.36,2187.18 1630.11,2190.37 1625.14,2191.21C1620.18,2192.04 1620.27,2190.22 1617.8,2189.79C1615.33,2189.36 1613.01,2188.45 1610.02,2189.36C1607.04,2190.27 1602.19,2191.84 1599.92,2191.84C1597.65,2191.84 1588.68,2198.25 1588.95,2206.93C1589.22,2215.62 1588.49,2218.66 1589.59,2222.38C1590.69,2226.1 1591.97,2231.21 1591.97,2235.32C1591.97,2239.43 1594.09,2239.78 1592.07,2246.1C1590.04,2252.42 1590.9,2252.97 1590.42,2257.51C1589.93,2262.06 1588.98,2262.49 1588.63,2266.75C1588.29,2271 1589.87,2276.68 1592.74,2277.98C1595.62,2279.28 1598.77,2281.04 1601.82,2281.33C1604.88,2281.61 1607.76,2280.24 1610.9,2278.96C1614.03,2277.67 1618.96,2277.01 1622.62,2277.95C1626.29,2278.89 1631.59,2278.59 1636.11,2280.03C1640.63,2281.48 1645.83,2281.73 1655.04,2281.46C1664.26,2281.19 1664.82,2280.18 1673.74,2283.03C1682.65,2285.89 1686.56,2284.01 1692.79,2285.19C1699.02,2286.37 1704.28,2285.54 1706.82,2284.03C1709.36,2282.53 1717.4,2286.28 1718.58,2276.09C1719.75,2265.91 1720.19,2264.97 1720.74,2261.63C1721.29,2258.29 1723.65,2253.21 1723.37,2248.92C1723.09,2244.63 1721.4,2242.36 1723.37,2238.79C1725.34,2235.22 1720.92,2227.93 1724.89,2226.28C1728.87,2224.64 1734.1,2222.37 1734.45,2217.26C1734.81,2212.16 1734.93,2211.93 1728.95,2210.24C1722.97,2208.55 1718.45,2207.74 1717.12,2204.09C1715.79,2200.43 1716.43,2199.11 1714.58,2193.99C1712.73,2188.86 1713.09,2185.81 1708.01,2186.65ZM1635.01,2230.63C1643.09,2230.93 1638.12,2230.4 1645.37,2230.2C1652.62,2230 1651.68,2228.75 1658.98,2227.32C1666.28,2225.89 1671.79,2223.11 1676.06,2223.89C1680.32,2224.67 1677.62,2224.97 1683.6,2226.18C1689.57,2227.38 1689.72,2231.81 1689.54,2238.83C1689.36,2245.85 1692.98,2244.21 1688.2,2249.74C1683.43,2255.28 1679.77,2252.45 1677.22,2251.53C1674.66,2250.62 1670.19,2250.29 1667.8,2251.63C1665.4,2252.97 1663.32,2252.91 1661.59,2252.15C1659.86,2251.38 1656.03,2251.82 1653.95,2253.36C1651.87,2254.9 1649.13,2253.88 1647.35,2252.26C1645.55,2250.64 1643.71,2251.14 1640.05,2248.96C1636.4,2246.78 1631.32,2247.24 1626.25,2245.18C1621.18,2243.13 1619.09,2237.43 1619.98,2233.72C1620.87,2230.01 1626.92,2230.33 1635.01,2230.63ZM1698.38,2037.89C1691.86,2036.55 1688.07,2036.67 1683.75,2036.93C1679.43,2037.2 1677.27,2040.33 1673.91,2037.53C1670.55,2034.73 1664.66,2036.93 1661.01,2036.35C1657.35,2035.76 1653.44,2035.89 1649.85,2036.22C1646.25,2036.56 1642.29,2036.22 1640.17,2041.8C1638.06,2047.38 1636.86,2047.37 1636.16,2054.78C1635.46,2062.19 1631.06,2061.73 1634.28,2067.69C1637.51,2073.66 1638.16,2075.89 1632.58,2075.89C1627,2075.89 1616.89,2079.41 1611.42,2076.86C1605.95,2074.3 1604.62,2077.98 1600.17,2075.74C1595.72,2073.49 1592.29,2074.1 1589.1,2077.63C1585.91,2081.16 1580.95,2081.76 1580.95,2085.07C1580.95,2088.38 1578.38,2091.07 1581.56,2092.96C1584.74,2094.84 1579.99,2101.14 1585.28,2103.21C1590.56,2105.28 1591.5,2105.38 1597.96,2104.64C1604.42,2103.91 1603.84,2103.01 1610.77,2104.06C1617.7,2105.1 1622.13,2108.47 1627,2107.7C1631.88,2106.93 1633.75,2107.25 1636.11,2110.16C1638.48,2113.06 1640.34,2115.18 1638.48,2119.01C1636.62,2122.85 1637.95,2130.07 1628.17,2130.81C1618.38,2131.56 1613.26,2136.76 1608.73,2139.19C1604.2,2141.61 1600.51,2140.75 1597.14,2143.22C1593.78,2145.69 1588.84,2147.34 1586.05,2150.4C1583.27,2153.46 1584.41,2152.65 1581.95,2156.73C1579.49,2160.81 1574.99,2161.51 1574.99,2165.77C1574.99,2170.03 1576.98,2172.58 1577.6,2177.74C1578.23,2182.9 1580.91,2185.64 1588.13,2183.3C1595.36,2180.96 1603.94,2180.22 1606.66,2175.09C1609.38,2169.95 1619.65,2168.3 1623.72,2163.29C1627.79,2158.28 1627.82,2156.08 1633.6,2153.53C1639.38,2150.97 1640.65,2150.42 1642.95,2146.99C1645.26,2143.55 1643.8,2143.55 1649.48,2143.55C1655.16,2143.55 1656.44,2143.35 1661.05,2144.57C1665.65,2145.79 1665.76,2151.24 1669.73,2153.15C1673.71,2155.05 1674.43,2158.1 1679.15,2160.61C1683.88,2163.12 1682.69,2167.57 1689.23,2172.19C1695.77,2176.81 1693.54,2180.77 1701.01,2180.77C1708.49,2180.77 1715.52,2184.67 1720.95,2180.34C1726.38,2176.02 1726.76,2170.12 1727.74,2164.96C1728.72,2159.79 1730.32,2157.75 1726.71,2153.18C1723.11,2148.61 1718.12,2145.8 1713.04,2145.26C1707.95,2144.72 1702.01,2140.53 1694.73,2136.88C1687.44,2133.23 1685.22,2133.14 1682.14,2130.35C1679.05,2127.56 1678.16,2124.64 1674.44,2121.9C1670.72,2119.16 1667.65,2117.94 1670.62,2114.69C1673.59,2111.44 1671.71,2108.23 1678.66,2107.59C1685.61,2106.96 1685.81,2106.55 1691.57,2106.55C1697.32,2106.55 1703.23,2106.01 1706.6,2107.71C1709.98,2109.41 1710.86,2110.28 1718.31,2109.41C1725.76,2108.53 1725.72,2107.96 1725.72,2101.8L1725.72,2086.42C1725.72,2083.47 1722.19,2079.1 1715.86,2078.72C1709.52,2078.34 1703.23,2076.51 1696.76,2077.19C1690.3,2077.86 1686.16,2078.85 1682.11,2077.51C1678.06,2076.18 1678.65,2074.34 1676.06,2076.18C1673.47,2078.03 1672.98,2071.15 1672.98,2071.15C1672.98,2071.15 1670.89,2066.62 1669.92,2063.16C1668.95,2059.7 1669.67,2058.04 1673.29,2057.9C1676.91,2057.75 1679.22,2055.92 1684.4,2057.66C1689.59,2059.39 1692.51,2059.92 1698.42,2059.39C1704.33,2058.86 1705.59,2060.2 1704.93,2053.44C1704.28,2046.67 1706.72,2039.6 1698.38,2037.89ZM1702.69,2498.56C1703.11,2501.29 1701.46,2501.6 1701.41,2504.24C1701.35,2506.88 1702.85,2509.95 1702.69,2512.22C1702.53,2514.48 1705.23,2517.87 1704.18,2521.85C1703.13,2525.83 1703.14,2526.28 1701.11,2529.49C1699.07,2532.71 1697.55,2529.43 1697.58,2526.41C1697.61,2523.38 1696.74,2524.3 1696.87,2521.32C1697.01,2518.34 1698.39,2519.51 1698.13,2517.01C1697.87,2514.51 1695.41,2512.84 1695.76,2510.84C1696.11,2508.84 1695.88,2505.5 1695.76,2501.38C1695.63,2497.26 1696.38,2494.23 1699.22,2494.24C1702.06,2494.25 1702.27,2495.83 1702.69,2498.56ZM1702.46,2475.58C1702.48,2477.07 1702.95,2478.23 1702.47,2480.36C1701.98,2482.49 1701.75,2481.47 1701.66,2484.06C1701.58,2486.66 1700.24,2487.95 1697.94,2487.51C1695.63,2487.06 1696.66,2487.09 1696.39,2484.53C1696.12,2481.96 1696.21,2481.14 1696.19,2478.92C1696.17,2476.71 1695.82,2475.66 1695.76,2473.71C1695.7,2471.77 1699.07,2470.46 1700.39,2471.96C1701.71,2473.46 1702.43,2473.43 1702.46,2475.58ZM1655.33,2496.39C1661.01,2497.42 1664.26,2498.56 1667.83,2501.55C1671.41,2504.54 1671.06,2507.38 1669.93,2512.53C1668.8,2517.68 1670.14,2519.45 1671.59,2528.89C1673.03,2538.33 1672.6,2539.74 1673.21,2547.46C1673.82,2555.19 1673.67,2554.89 1671.89,2561.49C1670.11,2568.1 1667.53,2573.52 1661.59,2572.62C1655.65,2571.72 1655.82,2570.3 1649.18,2566.84C1642.54,2563.38 1645.41,2555 1644.48,2547.11C1643.55,2539.22 1641.84,2543.28 1645.05,2536.83C1648.25,2530.38 1646.74,2531.95 1646.65,2525.52C1646.57,2519.09 1646.56,2519.37 1646.25,2512.53C1645.95,2505.68 1647.15,2504.8 1649.57,2501.46C1651.99,2498.12 1649.64,2495.35 1655.33,2496.39Z" style="fill:rgb(239,0,0);"/>
    </g>
</svg>
